<?xml version="1.0" standalone="no"?>
<!DOCTYPE svg PUBLIC "-//W3C//DTD SVG 20010904//EN"
 "http://www.w3.org/TR/2001/REC-SVG-20010904/DTD/svg10.dtd">
<svg version="1.0" xmlns="http://www.w3.org/2000/svg"
 width="540.000000pt" height="540.000000pt" viewBox="0 0 1080.000000 1080.000000"
 preserveAspectRatio="xMidYMid meet">

<g transform="translate(0.000000,1180.000000) scale(0.100000,-0.100000)"
fill="#FF0000" stroke="none">
<path d="M5266 6362 c128 -43 233 -112 359 -237 61 -60 127 -130 147 -154 l34
-45 95 18 c52 10 100 22 107 25 18 10 -106 105 -267 206 -176 110 -310 168
-463 200 -100 22 -104 18 -12 -13z"/>
<path d="M5058 6303 c7 -3 16 -2 19 1 4 3 -2 6 -13 5 -11 0 -14 -3 -6 -6z"/>
<path d="M4940 6284 c-102 -26 -165 -47 -153 -51 11 -4 243 54 252 63 9 8 -46
2 -99 -12z"/>
<path d="M4974 6190 c-147 -89 -296 -249 -383 -410 -63 -119 -111 -291 -111
-399 0 -37 26 -190 33 -197 1 -1 2 70 3 159 0 147 3 170 28 252 76 249 273
490 494 605 40 21 55 41 30 39 -7 0 -49 -22 -94 -49z"/>
<path d="M4779 6135 c-146 -102 -296 -279 -363 -428 -54 -118 -70 -189 -70
-312 0 -122 18 -201 66 -297 30 -61 45 -78 27 -30 -20 52 -39 174 -39 253 0
259 150 575 371 784 45 41 79 75 77 75 -2 0 -33 -20 -69 -45z"/>
<path d="M6208 6073 c63 -121 109 -260 125 -375 l11 -88 44 0 44 0 -7 56 c-13
106 -77 251 -165 369 -38 52 -72 77 -52 38z"/>
<path d="M5412 5928 c-17 -51 -54 -158 -82 -238 -29 -80 -55 -156 -60 -170 -4
-14 -18 -52 -30 -85 -12 -33 -33 -91 -47 -130 -13 -38 -31 -86 -38 -105 -8
-19 -41 -111 -75 -205 -34 -93 -68 -187 -76 -208 -8 -20 -14 -43 -14 -50 0 -7
33 -32 73 -56 39 -23 91 -58 115 -77 42 -33 72 -44 72 -25 0 5 -20 17 -45 27
-25 9 -45 17 -45 18 0 0 14 39 31 86 46 127 120 346 214 628 46 139 87 257 91
263 8 13 94 -147 94 -173 0 -10 -6 -32 -14 -50 -8 -18 -31 -76 -50 -128 -48
-132 -166 -444 -215 -568 -22 -57 -35 -102 -28 -99 12 4 110 126 283 353 54
72 161 210 237 307 132 167 145 180 268 272 71 53 131 101 134 106 4 5 -97 9
-257 9 -262 0 -263 0 -278 23 -18 28 -26 41 -129 221 -47 80 -88 146 -92 146
-3 0 -20 -42 -37 -92z"/>
<path d="M4773 5814 c-11 -16 -33 -54 -49 -84 -26 -49 -29 -64 -28 -145 1
-142 57 -278 158 -385 l38 -42 59 64 c32 34 58 66 59 69 0 4 -21 37 -46 75
-41 61 -79 133 -112 216 -17 41 -42 154 -43 191 0 18 -4 41 -8 51 -7 18 -9 17
-28 -10z"/>
<path d="M6409 5360 c-103 -202 -238 -380 -427 -562 -56 -54 -98 -98 -95 -98
3 0 36 16 72 37 227 126 394 305 472 508 29 72 52 215 36 215 -3 0 -29 -45
-58 -100z"/>
<path d="M5788 5175 c-34 -42 -64 -79 -66 -83 -1 -4 62 -34 140 -66 79 -33
158 -65 176 -73 31 -13 27 -6 -70 142 -57 85 -106 155 -110 155 -3 0 -35 -34
-70 -75z"/>
<path d="M6025 4701 c-37 -33 -427 -169 -561 -196 l-89 -18 -54 27 c-53 25
-60 26 -237 26 -101 0 -195 5 -210 10 -15 6 -29 9 -31 6 -3 -3 26 -14 64 -25
325 -94 701 -59 1002 94 92 47 153 85 136 85 -6 0 -15 -4 -20 -9z"/>
<path d="M4730 4600 c19 -11 40 -19 45 -19 6 0 -6 8 -25 19 -19 11 -39 19 -45
19 -5 0 6 -8 25 -19z"/>
</g>
</svg>

